PathFileType	4	(X/Y/Z)	C:\Users\ebm\Documents\Erivelton\Erivelton2\wc5.trc
DataRate	CameraRate	NumFrames	NumMarkers	Units	OrigDataRate	OrigDataStartFrame	OrigNumFrames
150.00	150.00	      9	28	mm	150.00	423	      1126
Frame#	Time	IJ			PX			C7			T8			RAC			RAS			RPS			RAI			RPI			RLE			RME			RRS			RUS			R3M			R5M			LAC			LAS			LPS			LAI			LPI			LLE			LME			LRS			LUS			L3M			L5M			RW			LW			V_mid_elbow_r			V_mid_elbow_l			V_mid_wrist_r			V_mid_wrist_l			V_mid_trunk_low			V_mid_trunk_upp			
		X1	Y1	Z1	X2	Y2	Z2	X3	Y3	Z3	X4	Y4	Z4	X5	Y5	Z5	X6	Y6	Z6	X7	Y7	Z7	X8	Y8	Z8	X9	Y9	Z9	X10	Y10	Z10	X11	Y11	Z11	X12	Y12	Z12	X13	Y13	Z13	X14	Y14	Z14	X15	Y15	Z15	X16	Y16	Z16	X17	Y17	Z17	X18	Y18	Z18	X19	Y19	Z19	X20	Y20	Z20	X21	Y21	Z21	X22	Y22	Z22	X23	Y23	Z23	X24	Y24	Z24	X25	Y25	Z25	X26	Y26	Z26	X27	Y27	Z27	X28	Y28	Z28	

423	2.813							-1474.04456	1112.08398	21.52905	-1597.71887	1002.17834	32.84140	-1406.10852	1010.85028	223.34126				-1428.21960	826.32367	288.14832	-1375.15869	746.14172	282.18176	-1421.66638	746.67078	306.83463										-1308.62097	454.75186	336.68951							-1438.13831	1018.65015	-165.46022	-1456.37524	860.31696	-238.74506				-1442.14246	777.75885	-255.92567				-1454.86182	693.81036	-280.07687				-1300.92554	465.93588	-271.82404	-1351.63940	455.41360	-312.13104	-1324.93762	376.60321	-308.40021	-1362.70422	394.31412	-314.02106							
424	2.820							-1465.54590	1113.11267	21.78525	-1588.97900	1002.87683	32.99926	-1397.75427	1011.95709	223.59973	-1374.84314	820.62708	264.15805	-1421.14941	828.09088	289.74115	-1368.35852	747.51819	284.74191	-1415.48157	749.23065	309.36234										-1299.91235	456.31927	336.48245							-1430.20947	1019.93665	-165.61763	-1449.45105	862.22351	-239.73930				-1435.56079	779.80713	-257.72141				-1448.92004	695.44769	-282.25262				-1292.23523	469.57938	-272.12860	-1342.53125	458.17908	-312.45862	-1314.80627	379.84314	-308.49051	-1352.83582	396.85538	-314.20288							
425	2.827							-1457.13049	1114.20618	22.03689	-1580.22864	1003.55377	33.19025	-1389.39429	1013.18256	223.83279	-1367.76123	822.60974	266.56396	-1414.08435	830.10101	291.63284	-1362.02539	749.34882	287.49036	-1408.74548	750.89563	311.70374										-1291.99414	458.25375	336.49164							-1422.11938	1021.32166	-165.70461	-1442.73157	864.30359	-240.75436				-1429.76440	782.88025	-260.73093				-1443.33643	697.42938	-284.70850				-1284.14758	473.54904	-272.97504	-1334.05713	461.18268	-313.23425	-1305.06689	383.14624	-308.65112	-1343.19910	399.55240	-314.63843							
426	2.833							-1448.82520	1115.29114	22.24837	-1571.58691	1004.29657	33.31042	-1380.89734	1014.42548	224.18848	-1360.69104	824.17615	268.24533	-1406.84985	832.33008	294.35660	-1355.72278	750.74707	290.06360	-1402.66833	753.25848	314.04559										-1284.55554	460.48087	336.82401							-1414.11450	1022.83301	-165.72467	-1436.16882	866.52826	-241.81750	-1480.53149	859.71082	-239.33560	-1423.87378	785.63245	-262.68570				-1438.03918	699.66553	-287.31976				-1276.40308	477.67776	-273.93491	-1326.00977	464.40781	-314.17538	-1295.83691	386.61646	-309.07742	-1334.20386	402.54410	-315.52295							
427	2.840							-1440.53369	1116.44214	22.48207	-1562.91882	1004.97015	33.47666	-1372.63562	1015.86371	224.36993	-1353.68896	825.75391	269.97742	-1400.27112	833.84552	294.77396	-1349.58594	751.95392	292.33279	-1397.23071	756.28229	316.52103										-1277.57312	462.88901	337.41956	-1244.18127	376.92319	327.49005				-1406.05176	1024.44165	-165.74115	-1429.75171	868.90912	-242.92041	-1474.05310	862.32660	-240.01074	-1418.02100	788.02100	-264.66086				-1432.95337	702.05151	-289.72620				-1269.20715	481.94406	-275.24786	-1318.45532	467.86380	-315.56628	-1287.26648	390.43802	-309.73245	-1325.78687	405.87589	-316.45267							
428	2.847							-1432.33691	1117.52649	22.71582	-1554.30750	1005.63660	33.61948	-1364.26794	1017.30115	224.56096	-1346.94263	827.34271	271.71078	-1393.56848	837.05768	297.37149	-1343.95459	753.62390	294.81989	-1391.71411	758.89557	318.82739										-1271.16211	465.61856	338.28244	-1236.93579	380.12775	327.51846				-1398.10400	1026.17993	-165.67751	-1423.41052	871.40375	-243.98065	-1467.72961	865.07068	-240.61366	-1412.45593	790.61249	-266.61954				-1428.10315	704.75665	-292.15518				-1262.40442	486.25690	-276.71387	-1311.33215	471.53760	-317.09076	-1279.29431	394.48584	-310.93469	-1317.77795	409.47806	-317.65994							
429	2.853							-1424.21057	1118.56262	22.92953	-1545.67969	1006.20734	33.75166	-1355.90601	1018.75854	224.70013	-1340.41455	829.02203	273.38489	-1387.40332	839.13763	298.14771	-1338.67297	755.49182	297.30023	-1386.48828	761.68634	321.12582	-1378.96924	695.81818	328.09875							-1265.04333	468.56061	339.22644	-1230.98071	384.25635	329.44608				-1390.02869	1027.93982	-165.58022	-1417.23303	874.01599	-245.01930	-1461.53369	867.98560	-241.13597	-1406.91895	793.53284	-269.32199	-1460.86511	787.54883	-265.20251	-1423.40674	707.56952	-294.74075				-1255.96326	490.59949	-278.12320	-1304.58716	475.35120	-318.69751	-1271.55603	398.49689	-312.12808	-1310.13501	413.10992	-319.23471							
430	2.860							-1416.15466	1119.48621	23.11611	-1537.03979	1006.68152	33.84701	-1347.58606	1020.31976	224.80775	-1334.01331	830.77863	275.12405	-1381.43921	841.11011	298.84705	-1333.71167	757.37848	299.93674	-1381.54419	764.51733	323.37476	-1374.78455	698.46368	331.18637							-1259.31714	471.61279	340.15942	-1223.20105	386.92432	328.90955				-1382.03198	1029.79285	-165.48624	-1411.15894	876.68250	-245.99956	-1455.40857	870.94116	-241.60971	-1401.56897	796.39380	-271.23871	-1455.57654	790.81836	-266.56177	-1418.92920	710.61823	-297.23819				-1249.84741	494.90704	-279.55423	-1298.08301	479.17969	-320.38263	-1264.09412	402.50174	-313.50876	-1302.71582	416.68005	-320.95282							
431	2.867							-1408.12756	1120.32617	23.29118	-1528.48303	1007.05530	33.96643	-1339.44031	1021.88141	224.99214	-1327.92224	832.50830	276.81485	-1375.92041	844.74078	300.13394	-1329.02075	759.45612	302.64990	-1376.95862	767.46741	325.60773	-1370.77661	701.04614	334.28754							-1253.95947	474.79913	341.28442	-1215.96252	390.27463	328.47906				-1374.16199	1031.62354	-165.37155	-1403.55945	877.80902	-247.11516	-1449.38672	874.24200	-242.97836	-1396.59399	799.49298	-273.16534	-1450.41064	794.17578	-267.86914	-1414.54163	713.72070	-299.74463				-1244.03955	499.27399	-281.23141	-1291.84680	483.07651	-322.17831	-1256.80420	406.57138	-315.18088	-1295.64355	420.29172	-322.79333							
